<svg xmlns="http://www.w3.org/2000/svg" viewBox="0 0 48 48" width="48" height="48"><defs><linearGradient id="b" x1="0.1" y1="0" x2="0.75" y2="1"><stop offset="0" stop-color="#93D3AC"/><stop offset="1" stop-color="#3F7A5B"/></linearGradient><linearGradient id="s" x1="0" y1="0" x2="0" y2="1"><stop offset="0" stop-color="#FFFFFF" stop-opacity="0.40"/><stop offset="1" stop-color="#FFFFFF" stop-opacity="0"/></linearGradient></defs><rect width="48" height="48" rx="13.5" fill="url(#b)"/><path d="M0 13.5A13.5 13.5 0 0 1 13.5 0h21A13.5 13.5 0 0 1 48 13.5V22C36 28 12 28 0 22z" fill="url(#s)"/><path d="M24 10l14 8-14 8-14-8z" fill="#FFE1B0" stroke="#2B211A" stroke-width="2.6" stroke-linejoin="round" stroke-linecap="round"/><path d="M10 18v16l14 8V26z" fill="#F0B979" stroke="#2B211A" stroke-width="2.6" stroke-linejoin="round" stroke-linecap="round"/><path d="M38 18v16l-14 8V26z" fill="#D89A5E" stroke="#2B211A" stroke-width="2.6" stroke-linejoin="round" stroke-linecap="round"/><rect x="0.7" y="0.7" width="46.6" height="46.6" rx="12.9" fill="none" stroke="#FFFFFF" stroke-opacity="0.30"/></svg>