<svg xmlns="http://www.w3.org/2000/svg" viewBox="0 0 440 196" width="440" height="196"><ellipse cx="310" cy="56" rx="60" ry="64" fill="#3B2A20" stroke="#241C16" stroke-width="6" stroke-linejoin="round" stroke-linecap="round"/><path d="M244 176c0-44 30-70 66-70s66 26 66 70z" fill="#2C3B59" stroke="#241C16" stroke-width="6" stroke-linejoin="round" stroke-linecap="round"/><path d="M310 112l-13 64h26z" fill="#F6F2EA" stroke="#241C16" stroke-width="6" stroke-linejoin="round" stroke-linecap="round"/><ellipse cx="310" cy="52" rx="46" ry="52" fill="#EEC49E" stroke="#241C16" stroke-width="6" stroke-linejoin="round" stroke-linecap="round"/><path d="M264 46c2-34 20-54 46-54s44 20 46 54c-7-20-19-30-46-30s-39 10-46 30z" fill="#3B2A20" stroke="#241C16" stroke-width="6" stroke-linejoin="round" stroke-linecap="round"/><circle cx="293" cy="50" r="11" fill="#FFFFFF" stroke="#241C16" stroke-width="4"/><circle cx="327" cy="50" r="11" fill="#FFFFFF" stroke="#241C16" stroke-width="4"/><circle cx="295" cy="53" r="5.5" fill="#241C16"/><circle cx="329" cy="53" r="5.5" fill="#241C16"/><path d="M298 74c8 7 16 7 24 0" stroke="#241C16" stroke-width="5" fill="none" stroke-linecap="round"/><circle cx="278" cy="66" r="7" fill="#E79A94" opacity="0.5"/><circle cx="342" cy="66" r="7" fill="#E79A94" opacity="0.5"/><rect x="250" y="30" width="24" height="42" rx="11" fill="#E8B87C" stroke="#241C16" stroke-width="6" stroke-linejoin="round" stroke-linecap="round"/><rect x="346" y="30" width="24" height="42" rx="11" fill="#E8B87C" stroke="#241C16" stroke-width="6" stroke-linejoin="round" stroke-linecap="round"/><path d="M266 40c0-30 20-50 44-50s44 20 44 50" fill="none" stroke="#E8B87C" stroke-width="9" stroke-linecap="round"/><path d="M-12 156h464v56H-12z" fill="#6B4A31" stroke="#241C16" stroke-width="6" stroke-linejoin="round" stroke-linecap="round"/><path d="M-12 156h464v10H-12z" fill="#8C6444"/><path d="M78 58h140l22 92H56z" fill="#EDE8DF" stroke="#241C16" stroke-width="6" stroke-linejoin="round" stroke-linecap="round"/><path d="M92 70h114l16 68H76z" fill="#1B1E24"/><path d="M104 84h52M100 100h72M96 116h40" stroke="#8FE3B0" stroke-width="5" stroke-linecap="round"/><path d="M56 150h184l20 20H36z" fill="#D7D1C6" stroke="#241C16" stroke-width="6" stroke-linejoin="round" stroke-linecap="round"/><rect x="122" y="156" width="50" height="6" rx="3" fill="#241C16"/></svg>