<svg xmlns="http://www.w3.org/2000/svg" viewBox="0 0 472 302" width="472" height="302"><defs><filter id="d" x="-30%" y="-30%" width="170%" height="170%"><feDropShadow dx="0" dy="10" stdDeviation="13" flood-color="#000000" flood-opacity="0.6"/></filter><radialGradient id="g" cx="50%" cy="50%" r="62%"><stop offset="0" stop-color="#E8B87C" stop-opacity="0.24"/><stop offset="1" stop-color="#96602A" stop-opacity="0"/></radialGradient></defs><ellipse cx="236" cy="151" rx="234" ry="146" fill="url(#g)"/><g transform="translate(21 26)"><g transform="rotate(-7 94.0 143.0)" filter="url(#d)"><rect x="14" y="54" width="160" height="178" rx="16" fill="#211D1A" stroke="#FFFFFF" stroke-opacity="0.18"/><circle cx="29" cy="69" r="3" fill="#FFFFFF" fill-opacity="0.3"/><circle cx="39" cy="69" r="3" fill="#FFFFFF" fill-opacity="0.18"/><circle cx="49" cy="69" r="3" fill="#FFFFFF" fill-opacity="0.18"/><line x1="14" y1="84" x2="174" y2="84" stroke="#FFFFFF" stroke-opacity="0.12"/><circle cx="54" cy="116" r="17" fill="#E8B87C" fill-opacity="0.9"/><rect x="78" y="108" width="68" height="7" rx="3.5" fill="#FFFFFF" fill-opacity="0.38"/><rect x="78" y="122" width="42" height="5" rx="2.5" fill="#FFFFFF" fill-opacity="0.16"/><rect x="30" y="146" width="128" height="30" rx="8" fill="#FFFFFF" fill-opacity="0.07"/><rect x="42" y="157" width="84" height="6" rx="3.0" fill="#FFFFFF" fill-opacity="0.22"/><rect x="30" y="186" width="60.0" height="22" rx="7" fill="#E8B87C" fill-opacity="0.34"/><rect x="98.0" y="186" width="60.0" height="22" rx="7" fill="#FFFFFF" fill-opacity="0.1"/></g><g transform="rotate(6 298.0 132.0)" filter="url(#d)"><rect x="210" y="34" width="176" height="196" rx="16" fill="#211D1A" stroke="#FFFFFF" stroke-opacity="0.18"/><circle cx="225" cy="49" r="3" fill="#FFFFFF" fill-opacity="0.3"/><circle cx="235" cy="49" r="3" fill="#FFFFFF" fill-opacity="0.18"/><circle cx="245" cy="49" r="3" fill="#FFFFFF" fill-opacity="0.18"/><line x1="210" y1="64" x2="386" y2="64" stroke="#FFFFFF" stroke-opacity="0.12"/><circle cx="232" cy="87" r="6" fill="#E8B87C" fill-opacity="1"/><rect x="246" y="81" width="116" height="6" rx="3.0" fill="#FFFFFF" fill-opacity="0.3"/><rect x="246" y="92" width="80" height="5" rx="2.5" fill="#FFFFFF" fill-opacity="0.14"/><circle cx="232" cy="114" r="6" fill="#FFFFFF" fill-opacity="0.2"/><rect x="246" y="108" width="108" height="6" rx="3.0" fill="#FFFFFF" fill-opacity="0.3"/><rect x="246" y="119" width="80" height="5" rx="2.5" fill="#FFFFFF" fill-opacity="0.14"/><circle cx="232" cy="141" r="6" fill="#FFFFFF" fill-opacity="0.2"/><rect x="246" y="135" width="100" height="6" rx="3.0" fill="#FFFFFF" fill-opacity="0.3"/><rect x="246" y="146" width="80" height="5" rx="2.5" fill="#FFFFFF" fill-opacity="0.14"/><circle cx="232" cy="168" r="6" fill="#FFFFFF" fill-opacity="0.2"/><rect x="246" y="162" width="92" height="6" rx="3.0" fill="#FFFFFF" fill-opacity="0.3"/><rect x="246" y="173" width="80" height="5" rx="2.5" fill="#FFFFFF" fill-opacity="0.14"/></g><g transform="rotate(-8 103.2 27.0)" filter="url(#d)"><rect x="16.5" y="8.5" width="173.4" height="37" rx="18.5" fill="#FFFFFF"/><rect x="20" y="12" width="166.4" height="30" rx="15.0" fill="#E8B87C"/><text x="103.2" y="32.5" text-anchor="middle" font-family="Helvetica Neue,Helvetica,Arial,sans-serif" font-size="13" font-weight="700" fill="#2A2521">MS @ NYU &#8217;27</text></g><g transform="rotate(7 338.6 214.5)" filter="url(#d)"><rect x="264.5" y="196.5" width="148.2" height="36" rx="18.0" fill="#FFFFFF"/><rect x="268" y="200" width="141.2" height="29" rx="14.5" fill="#FFFFFF"/><text x="338.6" y="219.5" text-anchor="middle" font-family="Helvetica Neue,Helvetica,Arial,sans-serif" font-size="12" font-weight="700" fill="#2A2521">Ships clean code</text></g><g filter="url(#d)"><circle cx="392" cy="60" r="21.5" fill="#FFFFFF"/><circle cx="392" cy="60" r="18" fill="#FFD452"/><circle cx="385.88" cy="57.12" r="2.34" fill="#2A2521"/><circle cx="398.12" cy="57.12" r="2.34" fill="#2A2521"/><path d="M384.44 64.32q7.56 7.56 15.12 0" stroke="#2A2521" stroke-width="2.6999999999999997" fill="none" stroke-linecap="round"/></g></g></svg>