<svg xmlns="http://www.w3.org/2000/svg" viewBox="0 0 400 290" width="400" height="290"><defs><filter id="d" x="-30%" y="-30%" width="170%" height="170%"><feDropShadow dx="0" dy="10" stdDeviation="14" flood-color="#000000" flood-opacity="0.55"/></filter><radialGradient id="g" cx="52%" cy="48%" r="62%"><stop offset="0" stop-color="#E8B87C" stop-opacity="0.22"/><stop offset="1" stop-color="#96602A" stop-opacity="0"/></radialGradient></defs><ellipse cx="205" cy="145" rx="198" ry="142" fill="url(#g)"/><g transform="rotate(-9 104 172)" filter="url(#d)"><rect x="38" y="96" width="132" height="152" rx="15" fill="#211D1A" stroke="#FFFFFF" stroke-opacity="0.16"/><circle cx="61" cy="126" r="8" fill="#E8B87C" fill-opacity="1"/><rect x="76" y="120" width="74" height="6" rx="3.0" fill="#FFFFFF" fill-opacity="0.34"/><rect x="76" y="130" width="44.4" height="5" rx="2.5" fill="#FFFFFF" fill-opacity="0.16"/><circle cx="61" cy="156" r="8" fill="#FFFFFF" fill-opacity="0.22"/><rect x="76" y="150" width="74" height="6" rx="3.0" fill="#FFFFFF" fill-opacity="0.34"/><rect x="76" y="160" width="44.4" height="5" rx="2.5" fill="#FFFFFF" fill-opacity="0.16"/><circle cx="61" cy="186" r="8" fill="#FFFFFF" fill-opacity="0.22"/><rect x="76" y="180" width="74" height="6" rx="3.0" fill="#FFFFFF" fill-opacity="0.34"/><rect x="76" y="190" width="44.4" height="5" rx="2.5" fill="#FFFFFF" fill-opacity="0.16"/><circle cx="61" cy="216" r="8" fill="#FFFFFF" fill-opacity="0.22"/><rect x="76" y="210" width="74" height="6" rx="3.0" fill="#FFFFFF" fill-opacity="0.34"/><rect x="76" y="220" width="44.4" height="5" rx="2.5" fill="#FFFFFF" fill-opacity="0.16"/></g><g transform="rotate(6 254 153)" filter="url(#d)"><rect x="150" y="46" width="208" height="214" rx="15" fill="#211D1A" stroke="#FFFFFF" stroke-opacity="0.16"/><circle cx="254" cy="104" r="30" fill="#E8B87C" fill-opacity="0.85"/><rect x="206" y="148" width="96" height="9" rx="4.5" fill="#FFFFFF" fill-opacity="0.42"/><rect x="224" y="166" width="60" height="7" rx="3.5" fill="#FFFFFF" fill-opacity="0.2"/><rect x="188" y="190" width="62" height="20" rx="6" fill="#E8B87C" fill-opacity="0.3"/><rect x="258" y="190" width="58" height="20" rx="6" fill="#FFFFFF" fill-opacity="0.12"/><rect x="186" y="224" width="136" height="6" rx="3.0" fill="#FFFFFF" fill-opacity="0.18"/></g><g transform="rotate(9 316.0 37.0)" filter="url(#d)"><rect x="268" y="20" width="96" height="34" rx="9" fill="#F6F2EA"/><rect x="277" y="43" width="78" height="4" rx="2" fill="#E8B87C"/><rect x="277" y="30" width="62" height="6" rx="3.0" fill="#2B2622" fill-opacity="0.55"/></g></svg>