<svg xmlns="http://www.w3.org/2000/svg" viewBox="0 0 430 250" width="430" height="250"><defs><filter id="d" x="-30%" y="-30%" width="170%" height="170%"><feDropShadow dx="0" dy="10" stdDeviation="13" flood-color="#000000" flood-opacity="0.6"/></filter><radialGradient id="g" cx="50%" cy="50%" r="62%"><stop offset="0" stop-color="#E895AC" stop-opacity="0.24"/><stop offset="1" stop-color="#93475E" stop-opacity="0"/></radialGradient></defs><ellipse cx="215" cy="130" rx="214" ry="124" fill="url(#g)"/><g transform="rotate(-7 88.0 142.0)" filter="url(#d)"><rect x="12" y="52" width="152" height="180" rx="16" fill="#211D1A" stroke="#FFFFFF" stroke-opacity="0.18"/><circle cx="27" cy="67" r="3" fill="#FFFFFF" fill-opacity="0.3"/><circle cx="37" cy="67" r="3" fill="#FFFFFF" fill-opacity="0.18"/><circle cx="47" cy="67" r="3" fill="#FFFFFF" fill-opacity="0.18"/><line x1="12" y1="82" x2="164" y2="82" stroke="#FFFFFF" stroke-opacity="0.12"/><circle cx="34" cy="105" r="6" fill="#E895AC" fill-opacity="1"/><rect x="48" y="99" width="92" height="6" rx="3.0" fill="#FFFFFF" fill-opacity="0.3"/><rect x="48" y="110" width="56" height="5" rx="2.5" fill="#FFFFFF" fill-opacity="0.14"/><circle cx="34" cy="132" r="6" fill="#FFFFFF" fill-opacity="0.2"/><rect x="48" y="126" width="84" height="6" rx="3.0" fill="#FFFFFF" fill-opacity="0.3"/><rect x="48" y="137" width="56" height="5" rx="2.5" fill="#FFFFFF" fill-opacity="0.14"/><circle cx="34" cy="159" r="6" fill="#FFFFFF" fill-opacity="0.2"/><rect x="48" y="153" width="76" height="6" rx="3.0" fill="#FFFFFF" fill-opacity="0.3"/><rect x="48" y="164" width="56" height="5" rx="2.5" fill="#FFFFFF" fill-opacity="0.14"/><circle cx="34" cy="186" r="6" fill="#FFFFFF" fill-opacity="0.2"/><rect x="48" y="180" width="68" height="6" rx="3.0" fill="#FFFFFF" fill-opacity="0.3"/><rect x="48" y="191" width="56" height="5" rx="2.5" fill="#FFFFFF" fill-opacity="0.14"/></g><g transform="rotate(6 288.0 135.0)" filter="url(#d)"><rect x="198" y="36" width="180" height="198" rx="16" fill="#211D1A" stroke="#FFFFFF" stroke-opacity="0.18"/><circle cx="213" cy="51" r="3" fill="#FFFFFF" fill-opacity="0.3"/><circle cx="223" cy="51" r="3" fill="#FFFFFF" fill-opacity="0.18"/><circle cx="233" cy="51" r="3" fill="#FFFFFF" fill-opacity="0.18"/><line x1="198" y1="66" x2="378" y2="66" stroke="#FFFFFF" stroke-opacity="0.12"/><rect x="214" y="82" width="62" height="7" rx="3.5" fill="#FFFFFF" fill-opacity="0.34"/><rect x="214" y="98" width="148" height="26" rx="8" fill="#FFFFFF" fill-opacity="0.07"/><rect x="214" y="132" width="148" height="26" rx="8" fill="#FFFFFF" fill-opacity="0.07"/><rect x="214" y="168" width="62" height="24" rx="9" fill="#E895AC" fill-opacity="0.6"/><rect x="226" y="177" width="38" height="6" rx="3.0" fill="#2A2521" fill-opacity="0.55"/></g><g transform="rotate(9 284.0 21)" filter="url(#d)"><rect x="228" y="4" width="112" height="34" rx="10" fill="#F7F3EC"/><rect x="238" y="14" width="14" height="14" rx="4" fill="#E895AC" fill-opacity="0.9"/><rect x="258" y="18" width="70" height="6" rx="3.0" fill="#2A2521" fill-opacity="0.55"/></g></svg>