<svg xmlns="http://www.w3.org/2000/svg" viewBox="0 0 640 420" width="640" height="420"><defs><radialGradient id="g" cx="50%" cy="46%" r="70%"><stop offset="0" stop-color="#8FB8EA" stop-opacity="0.26"/><stop offset="0.55" stop-color="#3F5F8E" stop-opacity="0.10"/><stop offset="1" stop-color="#3F5F8E" stop-opacity="0"/></radialGradient></defs><ellipse cx="320" cy="204" rx="318" ry="208" fill="url(#g)"/><g transform="translate(320 208) scale(11.6) translate(-12 -12)" opacity="0.15"><polygon points="12,4.4 21.6,8.9 12,13.4 2.4,8.9" fill="#8FB8EA"/><path d="M6.6 10.9v4.6c0 1.75 2.4 3.05 5.4 3.05s5.4-1.3 5.4-3.05v-4.6L12 13.5z" fill="#8FB8EA"/><path d="M20.7 9.3v5.4" stroke="#8FB8EA" stroke-width="1.35" stroke-linecap="round" fill="none"/><circle cx="20.7" cy="15.8" r="1.6" fill="#8FB8EA"/></g><g transform="rotate(-7 201 210)"><rect x="96" y="118" width="210" height="184" rx="18" fill="#FFFFFF" fill-opacity="0.12" stroke="#FFFFFF" stroke-opacity="0.28"/><rect x="124" y="210" width="120" height="9" rx="4.5" fill="#FFFFFF" fill-opacity="0.34"/><rect x="124" y="232" width="84" height="9" rx="4.5" fill="#FFFFFF" fill-opacity="0.16"/><rect x="124" y="262" width="62" height="22" rx="11.0" fill="#8FB8EA" fill-opacity="0.22"/></g><g transform="rotate(7 439 210)"><rect x="334" y="118" width="210" height="184" rx="18" fill="#FFFFFF" fill-opacity="0.12" stroke="#FFFFFF" stroke-opacity="0.28"/><rect x="362" y="210" width="120" height="9" rx="4.5" fill="#FFFFFF" fill-opacity="0.34"/><rect x="362" y="232" width="84" height="9" rx="4.5" fill="#FFFFFF" fill-opacity="0.16"/><rect x="362" y="262" width="62" height="22" rx="11.0" fill="#8FB8EA" fill-opacity="0.22"/></g></svg>