<svg xmlns="http://www.w3.org/2000/svg" viewBox="0 0 400 290" width="400" height="290"><defs><filter id="d" x="-30%" y="-30%" width="170%" height="170%"><feDropShadow dx="0" dy="10" stdDeviation="14" flood-color="#000000" flood-opacity="0.55"/></filter><radialGradient id="g" cx="52%" cy="48%" r="62%"><stop offset="0" stop-color="#93D3AC" stop-opacity="0.22"/><stop offset="1" stop-color="#3F7A5B" stop-opacity="0"/></radialGradient></defs><ellipse cx="205" cy="145" rx="198" ry="142" fill="url(#g)"/><g transform="rotate(-10 91 182)" filter="url(#d)"><rect x="30" y="118" width="122" height="128" rx="15" fill="#211D1A" stroke="#FFFFFF" stroke-opacity="0.16"/><rect x="46" y="140" width="62" height="7" rx="3.5" fill="#FFFFFF" fill-opacity="0.34"/><rect x="46" y="158" width="88" height="18" rx="6" fill="#93D3AC" fill-opacity="0.3"/><rect x="46" y="182" width="66" height="18" rx="6" fill="#FFFFFF" fill-opacity="0.13"/><rect x="46" y="206" width="78" height="18" rx="6" fill="#FFFFFF" fill-opacity="0.13"/></g><g transform="rotate(5 238 142)" filter="url(#d)"><rect x="130" y="44" width="216" height="196" rx="15" fill="#211D1A" stroke="#FFFFFF" stroke-opacity="0.16"/><rect x="152" y="64" width="96" height="9" rx="4.5" fill="#FFFFFF" fill-opacity="0.42"/><rect x="152" y="92" width="46" height="21" rx="6" fill="#93D3AC" fill-opacity="0.34"/><rect x="206" y="92" width="62" height="21" rx="6" fill="#FFFFFF" fill-opacity="0.13"/><rect x="276" y="92" width="40" height="21" rx="6" fill="#FFFFFF" fill-opacity="0.13"/><rect x="152" y="122" width="58" height="21" rx="6" fill="#FFFFFF" fill-opacity="0.13"/><rect x="218" y="122" width="44" height="21" rx="6" fill="#93D3AC" fill-opacity="0.34"/><rect x="270" y="122" width="46" height="21" rx="6" fill="#FFFFFF" fill-opacity="0.13"/><rect x="152" y="152" width="40" height="21" rx="6" fill="#FFFFFF" fill-opacity="0.13"/><rect x="200" y="152" width="66" height="21" rx="6" fill="#FFFFFF" fill-opacity="0.13"/><rect x="274" y="152" width="42" height="21" rx="6" fill="#93D3AC" fill-opacity="0.34"/></g><g transform="rotate(10 314.0 37.0)" filter="url(#d)"><rect x="268" y="20" width="92" height="34" rx="9" fill="#F6F2EA"/><rect x="277" y="43" width="74" height="4" rx="2" fill="#93D3AC"/><rect x="277" y="30" width="58" height="6" rx="3.0" fill="#2B2622" fill-opacity="0.55"/></g></svg>