<svg xmlns="http://www.w3.org/2000/svg" viewBox="0 0 430 300" width="430" height="300"><defs><filter id="d" x="-30%" y="-30%" width="170%" height="170%"><feDropShadow dx="0" dy="10" stdDeviation="13" flood-color="#000000" flood-opacity="0.55"/></filter><radialGradient id="g" cx="50%" cy="50%" r="62%"><stop offset="0" stop-color="#E8B87C" stop-opacity="0.24"/><stop offset="1" stop-color="#96602A" stop-opacity="0"/></radialGradient></defs><ellipse cx="215" cy="150" rx="212" ry="146" fill="url(#g)"/><g transform="translate(96 30) scale(1.0) rotate(-4 86 120)" filter="url(#d)"><path d="M18 214C18 150 50 124 86 124s68 26 68 90z" fill="#FFFFFF" stroke="#FFFFFF" stroke-width="15" stroke-linejoin="round"/><rect x="74" y="92" width="24" height="38" rx="11" fill="#FFFFFF" stroke="#FFFFFF" stroke-width="15" stroke-linejoin="round"/><rect x="40" y="62" width="20" height="96" rx="10" fill="#FFFFFF" stroke="#FFFFFF" stroke-width="15" stroke-linejoin="round"/><rect x="112" y="62" width="20" height="96" rx="10" fill="#FFFFFF" stroke="#FFFFFF" stroke-width="15" stroke-linejoin="round"/><circle cx="86" cy="84" r="41" fill="#FFFFFF" stroke="#FFFFFF" stroke-width="15" stroke-linejoin="round"/><path d="M45 80c1-32 18-50 41-50s40 18 41 50c-9-19-23-29-41-29s-32 10-41 29z" fill="#FFFFFF" stroke="#FFFFFF" stroke-width="15" stroke-linejoin="round"/><path d="M18 214C18 150 50 124 86 124s68 26 68 90z" fill="#2B3A58" /><rect x="74" y="92" width="24" height="38" rx="11" fill="#EFC49C" /><rect x="40" y="62" width="20" height="96" rx="10" fill="#241A15" /><rect x="112" y="62" width="20" height="96" rx="10" fill="#241A15" /><circle cx="86" cy="84" r="41" fill="#EFC49C" /><path d="M45 80c1-32 18-50 41-50s40 18 41 50c-9-19-23-29-41-29s-32 10-41 29z" fill="#241A15" /><circle cx="72" cy="86" r="3.8" fill="#2A2521"/><circle cx="100" cy="86" r="3.8" fill="#2A2521"/><path d="M76 102q10 8 20 0" stroke="#2A2521" stroke-width="3.4" fill="none" stroke-linecap="round"/><path d="M70 132 86 168 102 132" stroke="#F7F3EC" stroke-width="9" fill="none" stroke-linejoin="round"/></g><g transform="rotate(-9 89.2 45.0)" filter="url(#d)"><rect x="2.5" y="26.5" width="173.4" height="37" rx="18.5" fill="#FFFFFF"/><rect x="6" y="30" width="166.4" height="30" rx="15.0" fill="#E8B87C"/><text x="89.2" y="50.5" text-anchor="middle" font-family="Helvetica Neue,Helvetica,Arial,sans-serif" font-size="13" font-weight="700" fill="#2A2521">MS @ NYU &#8217;27</text></g><g transform="rotate(7 298.6 222.5)" filter="url(#d)"><rect x="224.5" y="204.5" width="148.2" height="36" rx="18.0" fill="#FFFFFF"/><rect x="228" y="208" width="141.2" height="29" rx="14.5" fill="#FFFFFF"/><text x="298.6" y="227.5" text-anchor="middle" font-family="Helvetica Neue,Helvetica,Arial,sans-serif" font-size="12" font-weight="700" fill="#2A2521">Ships clean code</text></g><g filter="url(#d)"><circle cx="300" cy="40" r="22.5" fill="#FFFFFF"/><circle cx="300" cy="40" r="19" fill="#FFD452"/><circle cx="293.54" cy="36.96" r="2.47" fill="#2A2521"/><circle cx="306.46" cy="36.96" r="2.47" fill="#2A2521"/><path d="M292.02 44.56q7.9799999999999995 7.9799999999999995 15.959999999999999 0" stroke="#2A2521" stroke-width="2.85" fill="none" stroke-linecap="round"/></g></svg>