<svg xmlns="http://www.w3.org/2000/svg" viewBox="0 0 430 300" width="430" height="300"><defs><filter id="d" x="-30%" y="-30%" width="170%" height="170%"><feDropShadow dx="0" dy="10" stdDeviation="13" flood-color="#000000" flood-opacity="0.55"/></filter><radialGradient id="g" cx="50%" cy="50%" r="62%"><stop offset="0" stop-color="#C2A2EA" stop-opacity="0.24"/><stop offset="1" stop-color="#63479A" stop-opacity="0"/></radialGradient></defs><ellipse cx="215" cy="150" rx="212" ry="146" fill="url(#g)"/><g transform="translate(10 62) scale(0.86) rotate(-12 52 95)" filter="url(#d)"><rect x="0" y="0" width="104" height="190" rx="20" fill="#F7F3EC" stroke="#FFFFFF" stroke-width="6" stroke-linejoin="round" stroke-linecap="round"/><rect x="10" y="34" width="84" height="140" rx="10" fill="#241C33"/><rect x="16" y="46" width="32" height="18" rx="4" fill="#C2A2EA" fill-opacity="0.95"/><rect x="54" y="46" width="26" height="18" rx="4" fill="#C2A2EA" fill-opacity="0.5"/><rect x="16" y="74" width="20" height="18" rx="4" fill="#C2A2EA" fill-opacity="0.5"/><rect x="44" y="74" width="36" height="18" rx="4" fill="#C2A2EA" fill-opacity="0.95"/><rect x="16" y="102" width="44" height="18" rx="4" fill="#C2A2EA" fill-opacity="0.5"/><rect x="66" y="102" width="14" height="18" rx="4" fill="#C2A2EA" fill-opacity="0.5"/><rect x="16" y="130" width="26" height="18" rx="4" fill="#C2A2EA" fill-opacity="0.95"/><rect x="48" y="130" width="32" height="18" rx="4" fill="#C2A2EA" fill-opacity="0.5"/></g><g transform="translate(276 58) scale(0.86) rotate(12 52 95)" filter="url(#d)"><rect x="0" y="0" width="104" height="190" rx="20" fill="#F7F3EC" stroke="#FFFFFF" stroke-width="6" stroke-linejoin="round" stroke-linecap="round"/><rect x="10" y="34" width="84" height="140" rx="10" fill="#151A22"/><rect x="18" y="48" width="52" height="22" rx="11" fill="#3B4658"/><rect x="34" y="78" width="52" height="22" rx="11" fill="#C2A2EA"/><rect x="18" y="108" width="62" height="22" rx="11" fill="#3B4658"/><rect x="18" y="140" width="76" height="20" rx="10" fill="#232B36"/></g><g transform="translate(140 34) scale(0.96) rotate(0 52 95)" filter="url(#d)"><rect x="0" y="0" width="104" height="190" rx="20" fill="#F7F3EC" stroke="#FFFFFF" stroke-width="6" stroke-linejoin="round" stroke-linecap="round"/><rect x="10" y="34" width="84" height="140" rx="10" fill="#F1ECE6"/><rect x="10" y="34" width="84" height="20" rx="10" fill="#C2A2EA"/><rect x="18" y="60" width="44" height="10" rx="5" fill="#8A8078"/><circle cx="80" cy="65" r="6" fill="#C2A2EA"/><rect x="18" y="86" width="40" height="10" rx="5" fill="#8A8078"/><circle cx="80" cy="91" r="6" fill="#C2A2EA"/><rect x="18" y="112" width="36" height="10" rx="5" fill="#8A8078"/><circle cx="80" cy="117" r="6" fill="#CFC7BF"/><rect x="18" y="138" width="32" height="10" rx="5" fill="#8A8078"/><circle cx="80" cy="143" r="6" fill="#CFC7BF"/></g><g transform="rotate(-10 48.1 37.0)" filter="url(#d)"><rect x="-3.5" y="18.5" width="103.2" height="37" rx="18.5" fill="#FFFFFF"/><rect x="0" y="22" width="96.2" height="30" rx="15.0" fill="#C2A2EA"/><text x="48.1" y="42.5" text-anchor="middle" font-family="Helvetica Neue,Helvetica,Arial,sans-serif" font-size="13" font-weight="700" fill="#2A2521">12 builds</text></g><g transform="rotate(7 266.2 250.5)" filter="url(#d)"><rect x="224.5" y="232.5" width="83.4" height="36" rx="18.0" fill="#FFFFFF"/><rect x="228" y="236" width="76.4" height="29" rx="14.5" fill="#FFFFFF"/><text x="266.2" y="255.5" text-anchor="middle" font-family="Helvetica Neue,Helvetica,Arial,sans-serif" font-size="12" font-weight="700" fill="#2A2521">SwiftUI</text></g><g filter="url(#d)"><circle cx="322" cy="32" r="21.5" fill="#FFFFFF"/><circle cx="322" cy="32" r="18" fill="#FFD452"/><circle cx="315.88" cy="29.12" r="2.34" fill="#2A2521"/><circle cx="328.12" cy="29.12" r="2.34" fill="#2A2521"/><path d="M314.44 36.32q7.56 7.56 15.12 0" stroke="#2A2521" stroke-width="2.6999999999999997" fill="none" stroke-linecap="round"/></g></svg>